<svg xmlns="http://www.w3.org/2000/svg" viewBox="70 -510 1802 710" fill="none"><path d="M196 0L70 0L70-496L194-496L194-431L212-431Q224-457 257-480.500Q290-504 357-504L357-504Q415-504 458.500-477.500Q502-451 526-404.500Q550-358 550-296L550-296L550 0L424 0L424-286Q424-342 396.500-370Q369-398 318-398L318-398Q260-398 228-359.500Q196-321 196-252L196-252L196 0Z M717 0L591 0L591-496L715-496L715-442L733-442Q746-467 776-485.500Q806-504 855-504L855-504Q908-504 940-483.500Q972-463 989-430L989-430L1007-430Q1024-462 1055-483Q1086-504 1143-504L1143-504Q1189-504 1226.500-484.500Q1264-465 1286.500-425.500Q1309-386 1309-326L1309-326L1309 0L1183 0L1183-317Q1183-358 1162-378.500Q1141-399 1103-399L1103-399Q1060-399 1036.500-371.500Q1013-344 1013-293L1013-293L1013 0L887 0L887-317Q887-358 866-378.500Q845-399 807-399L807-399Q764-399 740.500-371.500Q717-344 717-293L717-293L717 0Z M1476 200L1350 200L1350-496L1474-496L1474-436L1492-436Q1509-465 1545-487.500Q1581-510 1648-510L1648-510Q1708-510 1759-480.500Q1810-451 1841-394Q1872-337 1872-256L1872-256L1872-240Q1872-159 1841-102Q1810-45 1759-15.500Q1708 14 1648 14L1648 14Q1603 14 1572.500 3.500Q1542-7 1523.500-23.500Q1505-40 1494-57L1494-57L1476-57L1476 200ZM1610-96L1610-96Q1669-96 1707.500-133.500Q1746-171 1746-243L1746-243L1746-253Q1746-325 1707-362.500Q1668-400 1610-400L1610-400Q1552-400 1513-362.500Q1474-325 1474-253L1474-253L1474-243Q1474-171 1513-133.500Q1552-96 1610-96Z" fill="#FFFFFF"></path></svg>